<svg width="157" height="66" viewBox="0 0 157 66" fill="none" xmlns="http://www.w3.org/2000/svg">
<path d="M20 21L29.0426 22.5478L32 30.1672L24.5836 35.8328L27.4164 45L20 39.3344L12.5836 45L15.4164 35.8328L8 30.1672H17.1672L20 21Z" fill="url(#paint0_linear_2_1633)"/>
<path d="M56.0418 45.929C56.5063 45.929 56.9377 46.1171 57.3358 46.4931C57.734 46.8913 57.9331 47.3447 57.9331 47.8535C57.9331 48.3622 57.7008 48.8378 57.2363 49.2802C56.7939 49.7447 56.2188 50.154 55.5109 50.5079C54.8031 50.8618 54.0621 51.1383 53.2879 51.3374C52.5358 51.5365 51.8501 51.636 51.2307 51.636C49.8593 51.636 48.7643 51.5033 47.9459 51.2378C47.1274 50.9945 46.4528 50.707 45.9219 50.3752C45.391 50.0655 44.8933 49.7779 44.4288 49.5125C43.9643 49.2692 43.4002 49.1475 42.7366 49.1475C42.3163 49.1475 41.9735 49.2139 41.708 49.3466C41.4647 49.5014 41.1882 49.6452 40.8785 49.7779C40.591 49.9328 40.1818 50.0102 39.6509 50.0102C39.0979 50.0102 38.6334 49.8 38.2573 49.3798C37.8813 48.9595 37.6933 48.506 37.6933 48.0194C37.6933 47.1567 38.0804 46.5816 38.8546 46.294L45.7228 43.7392L48.709 44.4691L42.2721 46.8581L44.1634 45.7631C44.9376 45.7631 45.6122 45.8737 46.1873 46.0949C46.7846 46.3383 47.3486 46.6037 47.8795 46.8913C48.4104 47.1788 48.9523 47.4332 49.5053 47.6544C50.0805 47.8977 50.733 48.0194 51.463 48.0194C52.0602 48.0194 52.5579 47.9198 52.9561 47.7208C53.3763 47.5217 53.7413 47.3005 54.051 47.0572C54.427 46.7696 54.7588 46.5042 55.0464 46.2608C55.3561 46.0396 55.6879 45.929 56.0418 45.929ZM55.9091 33.387C55.9091 35.046 55.6326 36.5944 55.0796 38.0322C54.5266 39.47 53.7413 40.7419 52.7238 41.8479C51.7284 42.9318 50.5339 43.7834 49.1404 44.4028C47.7689 45.0221 46.2648 45.3318 44.6279 45.3318C42.991 45.3318 41.4868 45.0221 40.1154 44.4028C38.744 43.7834 37.5495 42.9318 36.532 41.8479C35.5366 40.7419 34.7624 39.47 34.2094 38.0322C33.6564 36.5944 33.3799 35.046 33.3799 33.387C33.3799 31.728 33.6564 30.1796 34.2094 28.7418C34.7624 27.304 35.5366 26.0432 36.532 24.9593C37.5495 23.8533 38.744 22.9906 40.1154 22.3712C41.4868 21.7519 42.991 21.4422 44.6279 21.4422C46.2648 21.4422 47.7689 21.7519 49.1404 22.3712C50.5339 22.9906 51.7284 23.8533 52.7238 24.9593C53.7413 26.0432 54.5266 27.304 55.0796 28.7418C55.6326 30.1796 55.9091 31.728 55.9091 33.387ZM51.5957 33.387C51.5957 31.905 51.2971 30.5667 50.6998 29.3722C50.1026 28.1556 49.2841 27.1934 48.2445 26.4856C47.2049 25.7777 45.9993 25.4238 44.6279 25.4238C43.2564 25.4238 42.0509 25.7777 41.0113 26.4856C39.9716 27.1934 39.1532 28.1446 38.5559 29.339C37.9808 30.5335 37.6933 31.8828 37.6933 33.387C37.6933 34.869 37.9808 36.2184 38.5559 37.435C39.1532 38.6294 39.9716 39.5806 41.0113 40.2884C42.0509 40.9963 43.2564 41.3502 44.6279 41.3502C45.9993 41.3502 47.2049 40.9963 48.2445 40.2884C49.2841 39.5806 50.1026 38.6294 50.6998 37.435C51.2971 36.2184 51.5957 34.869 51.5957 33.387ZM63.1716 42.976C63.1716 43.5511 62.9836 44.0378 62.6075 44.4359C62.2315 44.812 61.7559 45 61.1808 45C60.6057 45 60.1301 44.812 59.7541 44.4359C59.378 44.0378 59.19 43.5511 59.19 42.976V29.2727C59.19 28.6976 59.378 28.222 59.7541 27.8459C60.1301 27.4478 60.6057 27.2487 61.1808 27.2487C61.7559 27.2487 62.2315 27.4478 62.6075 27.8459C62.9836 28.222 63.1716 28.6976 63.1716 29.2727V42.976ZM61.1476 25.092C60.3955 25.092 59.8647 24.9703 59.555 24.727C59.2453 24.4837 59.0905 24.0524 59.0905 23.433V22.8026C59.0905 22.1611 59.2564 21.7298 59.5882 21.5086C59.9421 21.2652 60.473 21.1436 61.1808 21.1436C61.955 21.1436 62.4969 21.2652 62.8066 21.5086C63.1163 21.7519 63.2711 22.1832 63.2711 22.8026V23.433C63.2711 24.0745 63.1052 24.5169 62.7734 24.7602C62.4416 24.9814 61.8997 25.092 61.1476 25.092ZM69.7521 45C69.177 45 68.7014 44.812 68.3254 44.4359C67.9494 44.0378 67.7613 43.5511 67.7613 42.976V22.4708C67.7613 21.8957 67.9494 21.4201 68.3254 21.044C68.7014 20.6459 69.177 20.4468 69.7521 20.4468C70.3273 20.4468 70.8028 20.6459 71.1789 21.044C71.5549 21.4201 71.7429 21.8957 71.7429 22.4708V42.976C71.7429 43.5511 71.5549 44.0378 71.1789 44.4359C70.8028 44.812 70.3273 45 69.7521 45ZM80.3034 27.2487C80.8121 27.2487 81.2545 27.4588 81.6306 27.8791C82.0066 28.2994 82.1946 28.7086 82.1946 29.1068C82.1946 29.6377 81.9292 30.1354 81.3983 30.5999L71.4111 39.7907L71.2452 35.2119L78.8435 27.8791C79.2637 27.4588 79.7504 27.2487 80.3034 27.2487ZM80.8011 44.9668C80.226 44.9668 79.7393 44.7456 79.3412 44.3032L73.2029 37.7999L76.2222 35.0128L82.1946 41.5161C82.6149 41.9585 82.8251 42.4562 82.8251 43.0092C82.8251 43.5843 82.5928 44.0599 82.1283 44.4359C81.6859 44.7899 81.2435 44.9668 80.8011 44.9668ZM104.436 21.774C104.967 21.774 105.399 21.951 105.73 22.3049C106.062 22.6588 106.228 23.1012 106.228 23.6321V42.976C106.228 43.5511 106.029 44.0378 105.631 44.4359C105.255 44.812 104.779 45 104.204 45C103.917 45 103.618 44.9558 103.308 44.8673C103.021 44.7567 102.799 44.6129 102.645 44.4359L89.6049 27.8791L90.4676 27.3482V43.1419C90.4676 43.6728 90.2906 44.1152 89.9367 44.4691C89.6049 44.823 89.1625 45 88.6095 45C88.0786 45 87.6473 44.823 87.3155 44.4691C86.9837 44.1152 86.8178 43.6728 86.8178 43.1419V23.798C86.8178 23.2229 87.0058 22.7473 87.3819 22.3712C87.78 21.9731 88.2667 21.774 88.8418 21.774C89.1515 21.774 89.4722 21.8404 89.804 21.9731C90.1358 22.0837 90.3791 22.2606 90.534 22.504L103.176 38.6294L102.611 39.0276V23.6321C102.611 23.1012 102.777 22.6588 103.109 22.3049C103.441 21.951 103.883 21.774 104.436 21.774ZM113.473 45C112.854 45 112.345 44.812 111.947 44.4359C111.571 44.0378 111.383 43.5511 111.383 42.976V23.798C111.383 23.2229 111.571 22.7473 111.947 22.3712C112.345 21.9731 112.832 21.774 113.407 21.774H124.19C124.765 21.774 125.241 21.962 125.617 22.3381C126.015 22.692 126.214 23.1565 126.214 23.7316C126.214 24.2183 126.015 24.6496 125.617 25.0256C125.241 25.4017 124.765 25.5897 124.19 25.5897H115.232L115.53 25.1915V31.8607L115.298 31.4294H122.697C123.272 31.4294 123.748 31.6174 124.124 31.9934C124.522 32.3474 124.721 32.8119 124.721 33.387C124.721 33.8736 124.522 34.305 124.124 34.681C123.748 35.0571 123.272 35.2451 122.697 35.2451H115.232L115.53 34.9465V42.976C115.53 43.5511 115.32 44.0378 114.9 44.4359C114.502 44.812 114.026 45 113.473 45ZM138.53 45C137.91 45 137.401 44.812 137.003 44.4359C136.605 44.0378 136.406 43.5511 136.406 42.976V23.7316H140.719V42.976C140.719 43.5511 140.509 44.0378 140.089 44.4359C139.691 44.812 139.171 45 138.53 45ZM131.197 25.5897C130.622 25.5897 130.135 25.4127 129.737 25.0588C129.361 24.7049 129.173 24.2404 129.173 23.6653C129.173 23.0901 129.361 22.6367 129.737 22.3049C130.135 21.951 130.622 21.774 131.197 21.774H145.929C146.504 21.774 146.979 21.951 147.355 22.3049C147.754 22.6588 147.953 23.1233 147.953 23.6984C147.953 24.2736 147.754 24.7381 147.355 25.092C146.979 25.4238 146.504 25.5897 145.929 25.5897H131.197Z" fill="#FFFEFD"/>
<defs>
<linearGradient id="paint0_linear_2_1633" x1="0.285714" y1="21" x2="35.6429" y2="26.3571" gradientUnits="userSpaceOnUse">
<stop stop-color="#FFAC30"/>
<stop offset="1" stop-color="#FD01A7"/>
</linearGradient>
</defs>
</svg>
