<svg width="18" height="4" viewBox="0 0 18 4" fill="none" xmlns="http://www.w3.org/2000/svg">
<path d="M2 2H2.01M9 2H9.01M16 2H16.01M3 2C3 2.5523 2.55228 3 2 3C1.44772 3 1 2.5523 1 2C1 1.4477 1.44772 1 2 1C2.55228 1 3 1.4477 3 2ZM10 2C10 2.5523 9.5523 3 9 3C8.4477 3 8 2.5523 8 2C8 1.4477 8.4477 1 9 1C9.5523 1 10 1.4477 10 2ZM17 2C17 2.5523 16.5523 3 16 3C15.4477 3 15 2.5523 15 2C15 1.4477 15.4477 1 16 1C16.5523 1 17 1.4477 17 2Z" stroke="#FFFEFD" stroke-width="2" stroke-linecap="round" stroke-linejoin="round"/>
</svg>
