<svg width="138" height="66" viewBox="0 0 138 66" fill="none" xmlns="http://www.w3.org/2000/svg">
<path d="M20 21L29.0426 22.5478L32 30.1672L24.5836 35.8328L27.4164 45L20 39.3344L12.5836 45L15.4164 35.8328L8 30.1672H17.1672L20 21Z" fill="url(#paint0_linear_2_1222)"/>
<path d="M52.2848 43.7742C52.6719 43.7742 53.0314 43.9309 53.3632 44.2443C53.695 44.5761 53.8609 44.9539 53.8609 45.3779C53.8609 45.8019 53.6673 46.1982 53.2802 46.5669C52.9116 46.954 52.4323 47.295 51.8424 47.5899C51.2526 47.8848 50.635 48.1153 49.9899 48.2812C49.3631 48.4471 48.7917 48.53 48.2756 48.53C47.1327 48.53 46.2203 48.4194 45.5382 48.1982C44.8562 47.9954 44.294 47.7558 43.8516 47.4793C43.4092 47.2212 42.9944 46.9816 42.6073 46.7604C42.2202 46.5576 41.7502 46.4562 41.1972 46.4562C40.8469 46.4562 40.5612 46.5116 40.34 46.6222C40.1373 46.7512 39.9068 46.871 39.6488 46.9816C39.4091 47.1106 39.0681 47.1752 38.6257 47.1752C38.1649 47.1752 37.7778 47 37.4644 46.6498C37.1511 46.2996 36.9944 45.9217 36.9944 45.5162C36.9944 44.7973 37.317 44.318 37.9621 44.0784L43.6857 41.9493L46.1742 42.5576L40.8101 44.5484L42.3861 43.636C43.0313 43.636 43.5935 43.7281 44.0728 43.9124C44.5705 44.1152 45.0405 44.3364 45.4829 44.5761C45.9253 44.8157 46.3769 45.0277 46.8378 45.212C47.317 45.4148 47.8608 45.5162 48.4691 45.5162C48.9668 45.5162 49.3816 45.4332 49.7134 45.2673C50.0636 45.1014 50.3678 44.9171 50.6258 44.7143C50.9392 44.4747 51.2157 44.2535 51.4553 44.0507C51.7134 43.8664 51.9899 43.7742 52.2848 43.7742ZM52.1742 33.3225C52.1742 34.705 51.9438 35.9953 51.483 37.1935C51.0221 38.3917 50.3678 39.4516 49.5198 40.3732C48.6903 41.2765 47.6949 41.9862 46.5336 42.5023C45.3908 43.0184 44.1373 43.2765 42.7732 43.2765C41.4092 43.2765 40.1557 43.0184 39.0128 42.5023C37.87 41.9862 36.8746 41.2765 36.0266 40.3732C35.1971 39.4516 34.552 38.3917 34.0911 37.1935C33.6303 35.9953 33.3999 34.705 33.3999 33.3225C33.3999 31.94 33.6303 30.6497 34.0911 29.4515C34.552 28.2533 35.1971 27.2026 36.0266 26.2994C36.8746 25.3777 37.87 24.6588 39.0128 24.1427C40.1557 23.6266 41.4092 23.3685 42.7732 23.3685C44.1373 23.3685 45.3908 23.6266 46.5336 24.1427C47.6949 24.6588 48.6903 25.3777 49.5198 26.2994C50.3678 27.2026 51.0221 28.2533 51.483 29.4515C51.9438 30.6497 52.1742 31.94 52.1742 33.3225ZM48.5797 33.3225C48.5797 32.0875 48.3309 30.9722 47.8332 29.9768C47.3355 28.963 46.6534 28.1612 45.7871 27.5713C44.9207 26.9814 43.9161 26.6865 42.7732 26.6865C41.6304 26.6865 40.6257 26.9814 39.7594 27.5713C38.893 28.1612 38.211 28.9538 37.7133 29.9492C37.234 30.9446 36.9944 32.069 36.9944 33.3225C36.9944 34.5575 37.234 35.682 37.7133 36.6958C38.211 37.6912 38.893 38.4838 39.7594 39.0737C40.6257 39.6636 41.6304 39.9585 42.7732 39.9585C43.9161 39.9585 44.9207 39.6636 45.7871 39.0737C46.6534 38.4838 47.3355 37.6912 47.8332 36.6958C48.3309 35.682 48.5797 34.5575 48.5797 33.3225ZM58.2263 41.3133C58.2263 41.7926 58.0697 42.1981 57.7563 42.5299C57.4429 42.8433 57.0466 43 56.5673 43C56.0881 43 55.6918 42.8433 55.3784 42.5299C55.065 42.1981 54.9083 41.7926 54.9083 41.3133V29.8939C54.9083 29.4146 55.065 29.0183 55.3784 28.7049C55.6918 28.3731 56.0881 28.2072 56.5673 28.2072C57.0466 28.2072 57.4429 28.3731 57.7563 28.7049C58.0697 29.0183 58.2263 29.4146 58.2263 29.8939V41.3133ZM56.5397 26.41C55.913 26.41 55.4706 26.3086 55.2125 26.1059C54.9544 25.9031 54.8254 25.5436 54.8254 25.0275V24.5021C54.8254 23.9676 54.9636 23.6081 55.2401 23.4238C55.5351 23.221 55.9775 23.1196 56.5673 23.1196C57.2125 23.1196 57.6641 23.221 57.9222 23.4238C58.1803 23.6266 58.3093 23.986 58.3093 24.5021V25.0275C58.3093 25.5621 58.171 25.9307 57.8945 26.1335C57.618 26.3178 57.1664 26.41 56.5397 26.41ZM63.7101 43C63.2308 43 62.8345 42.8433 62.5212 42.5299C62.2078 42.1981 62.0511 41.7926 62.0511 41.3133V24.2256C62.0511 23.7464 62.2078 23.3501 62.5212 23.0367C62.8345 22.7049 63.2308 22.539 63.7101 22.539C64.1894 22.539 64.5857 22.7049 64.8991 23.0367C65.2124 23.3501 65.3691 23.7464 65.3691 24.2256V41.3133C65.3691 41.7926 65.2124 42.1981 64.8991 42.5299C64.5857 42.8433 64.1894 43 63.7101 43ZM72.5028 28.2072C72.9268 28.2072 73.2954 28.3824 73.6088 28.7326C73.9222 29.0828 74.0789 29.4238 74.0789 29.7556C74.0789 30.198 73.8577 30.6128 73.4153 30.9999L65.0926 38.6589L64.9544 34.8432L71.2862 28.7326C71.6364 28.3824 72.042 28.2072 72.5028 28.2072ZM72.9176 42.9723C72.4383 42.9723 72.0328 42.788 71.701 42.4193L66.5857 36.9999L69.1019 34.6773L74.0789 40.0967C74.4291 40.4654 74.6042 40.8802 74.6042 41.341C74.6042 41.8203 74.4107 42.2166 74.0236 42.5299C73.6549 42.8249 73.2862 42.9723 72.9176 42.9723ZM92.6136 23.645C93.056 23.645 93.4155 23.7925 93.692 24.0874C93.9685 24.3823 94.1067 24.751 94.1067 25.1934V41.3133C94.1067 41.7926 93.9408 42.1981 93.609 42.5299C93.2957 42.8433 92.8994 43 92.4201 43C92.1805 43 91.9316 42.9631 91.6735 42.8894C91.4339 42.7972 91.2496 42.6774 91.1205 42.5299L80.2541 28.7326L80.973 28.2902V41.4516C80.973 41.894 80.8255 42.2627 80.5306 42.5576C80.2541 42.8525 79.8854 43 79.4246 43C78.9822 43 78.6227 42.8525 78.3462 42.5576C78.0697 42.2627 77.9315 41.894 77.9315 41.4516V25.3316C77.9315 24.8524 78.0882 24.4561 78.4015 24.1427C78.7333 23.8109 79.1389 23.645 79.6181 23.645C79.8762 23.645 80.1435 23.7003 80.42 23.8109C80.6965 23.9031 80.8993 24.0505 81.0283 24.2533L91.5629 37.6912L91.0929 38.023V25.1934C91.0929 24.751 91.2311 24.3823 91.5076 24.0874C91.7841 23.7925 92.1528 23.645 92.6136 23.645ZM100.144 43C99.628 43 99.2041 42.8433 98.8723 42.5299C98.5589 42.1981 98.4022 41.7926 98.4022 41.3133V25.3316C98.4022 24.8524 98.5589 24.4561 98.8723 24.1427C99.2041 23.8109 99.6096 23.645 100.089 23.645H109.075C109.554 23.645 109.951 23.8017 110.264 24.115C110.596 24.41 110.762 24.7971 110.762 25.2763C110.762 25.6819 110.596 26.0413 110.264 26.3547C109.951 26.6681 109.554 26.8247 109.075 26.8247H101.61L101.858 26.493V32.0506L101.665 31.6911H107.831C108.31 31.6911 108.706 31.8478 109.02 32.1612C109.352 32.4561 109.518 32.8432 109.518 33.3225C109.518 33.728 109.352 34.0875 109.02 34.4008C108.706 34.7142 108.31 34.8709 107.831 34.8709H101.61L101.858 34.6221V41.3133C101.858 41.7926 101.683 42.1981 101.333 42.5299C101.001 42.8433 100.605 43 100.144 43ZM121.025 43C120.509 43 120.085 42.8433 119.753 42.5299C119.421 42.1981 119.255 41.7926 119.255 41.3133V25.2763H122.85V41.3133C122.85 41.7926 122.674 42.1981 122.324 42.5299C121.992 42.8433 121.559 43 121.025 43ZM114.914 26.8247C114.435 26.8247 114.029 26.6773 113.697 26.3823C113.384 26.0874 113.227 25.7003 113.227 25.2211C113.227 24.7418 113.384 24.3639 113.697 24.0874C114.029 23.7925 114.435 23.645 114.914 23.645H127.191C127.67 23.645 128.066 23.7925 128.38 24.0874C128.711 24.3823 128.877 24.7694 128.877 25.2487C128.877 25.728 128.711 26.1151 128.38 26.41C128.066 26.6865 127.67 26.8247 127.191 26.8247H114.914Z" fill="#FFFEFD"/>
<defs>
<linearGradient id="paint0_linear_2_1222" x1="0.285714" y1="21" x2="35.6429" y2="26.3571" gradientUnits="userSpaceOnUse">
<stop stop-color="#FFAC30"/>
<stop offset="1" stop-color="#FD01A7"/>
</linearGradient>
</defs>
</svg>
